<svg width="1100" height="178" viewBox="0 0 1100 178" fill="none" xmlns="http://www.w3.org/2000/svg">
<g clip-path="url(#clip0_1_130)">
<path d="M8.08645 5.34001C19.1134 6.10285 25.4846 12.2057 25.4846 22.8857V155.114C25.4846 165.794 19.1134 171.897 8.33149 172.66L0 173.169V178H69.5925V173.169L61.0159 172.66C50.234 172.151 43.6178 165.286 43.6178 154.351V98.663H70.8177C112.965 98.663 135.509 71.7086 135.509 45.5171C135.509 21.6143 116.641 0 79.1492 0H0V4.83143L8.08645 5.34001ZM66.6519 4.57714C97.2825 4.57714 113.455 26.1914 113.455 49.0771C113.455 71.7086 97.7725 94.34 67.142 94.34H43.6178V4.57714H66.6519Z" fill="#1F1E1E"/>
<path d="M151.487 152.826C147.076 163.76 141.685 170.626 127.228 173.169V178H183.833V173.169C167.17 173.169 158.348 169.1 158.348 159.437C158.348 156.64 159.083 153.334 160.553 149.52L173.786 115.446H244.113L258.326 151.554C259.551 154.86 260.287 157.911 260.287 160.454C260.287 169.1 252.69 173.169 236.763 173.169V178H302.924V173.169C290.672 171.897 283.811 166.303 280.135 157.149L216.668 0H212.748L151.487 152.826ZM175.746 110.614L208.583 26.9543L241.908 110.614H175.746Z" fill="#1F1E1E"/>
<path d="M321.331 5.34001C332.358 6.10285 338.729 12.2057 338.729 22.8857V155.114C338.729 165.794 332.358 171.897 321.576 172.66L313.244 173.169V178H446.548L453.41 120.023H448.263C441.158 153.589 425.965 173.169 397.785 173.169H376.956C364.704 173.169 356.862 165.794 356.862 154.606V22.8857C356.862 12.2057 363.478 5.84857 374.506 5.34001L384.553 4.83143V0H313.244V4.83143L321.331 5.34001Z" fill="#1F1E1E"/>
<path d="M476.637 5.34001C487.664 6.10285 494.035 12.2057 494.035 22.8857V155.114C494.035 165.794 487.664 171.897 476.882 172.66L468.551 173.169V178H601.854L608.716 120.023H603.57C596.463 153.589 581.271 173.169 553.091 173.169H532.262C520.01 173.169 512.168 165.794 512.168 154.606V89.763H541.328C560.687 89.763 567.058 98.917 568.528 119.006H573.674V55.9429H568.528C567.058 76.54 560.687 84.9311 541.328 84.9311H512.168V4.57714H555.051C581.516 4.57714 593.278 22.1229 596.463 48.5686H600.629V0H468.551V4.83143L476.637 5.34001Z" fill="#1F1E1E"/>
<path d="M625.982 48.5686H630.147C635.538 22.1229 647.546 4.57714 671.56 4.57714H694.349V155.114C694.349 165.794 687.977 172.151 677.196 172.66L666.414 173.169V178H740.662V173.169L729.881 172.66C719.098 172.151 712.482 165.794 712.482 155.114V4.57714H735.517C758.796 4.57714 771.292 21.8686 776.929 48.5686H781.095L778.154 0H628.922L625.982 48.5686Z" fill="#1F1E1E"/>
<path d="M792.296 48.5686H796.462C801.853 22.1229 813.86 4.57714 837.875 4.57714H860.667V155.114C860.667 165.794 854.292 172.151 843.508 172.66L832.728 173.169V178H906.975V173.169L896.192 172.66C885.408 172.151 878.8 165.794 878.8 155.114V4.57714H901.833C925.108 4.57714 937.608 21.8686 943.242 48.5686H947.408L944.467 0H795.237L792.296 48.5686Z" fill="#1F1E1E"/>
<path d="M967.925 5.34001C978.95 6.10285 985.317 12.2057 985.317 22.8857V155.114C985.317 165.794 978.95 171.897 968.167 172.66L959.833 173.169V178H1093.14L1100 120.023H1094.85C1087.75 153.589 1072.56 173.169 1044.38 173.169H1023.55C1011.29 173.169 1003.45 165.794 1003.45 154.606V89.763H1032.62C1051.98 89.763 1058.34 98.917 1059.82 119.006H1064.96V55.9429H1059.82C1058.34 76.54 1051.98 84.9311 1032.62 84.9311H1003.45V4.57714H1046.33C1072.8 4.57714 1084.56 22.1229 1087.75 48.5686H1091.92V0H959.833V4.83143L967.925 5.34001Z" fill="#1F1E1E"/>
</g>
<defs>
<clipPath id="clip0_1_130">
<rect width="1100" height="178" fill="white"/>
</clipPath>
</defs>
</svg>
